<?xml version="1.0" encoding="utf-8"?>
<!-- Generator: Adobe Illustrator 26.0.2, SVG Export Plug-In . SVG Version: 6.00 Build 0)  -->
<svg version="1.1" id="Capa_1" xmlns="http://www.w3.org/2000/svg" xmlns:xlink="http://www.w3.org/1999/xlink" x="0px" y="0px"
	 viewBox="0 0 200 61.9" style="enable-background:new 0 0 200 61.9;" xml:space="preserve">
<style type="text/css">
	.st0{fill:#FFFFFF;}
</style>
<path class="st0" d="M42,61.9c-2.6,0-5-1-6.8-2.9l-9.4-9.4L16.5,59c-2.7,2.8-6.9,3.6-10.5,2.1c-3.7-1.5-6-5-6-8.9V13.9
	C0,6.2,6.2,0,13.9,0h23.9c7.7,0,13.9,6.2,13.9,13.9v38.3c0,3.9-2.3,7.5-6,8.9C44.5,61.6,43.3,61.9,42,61.9z M28.2,46.9l9.5,9.6
	c2.4,2.4,6.2,2.4,8.6,0c1.1-1.1,1.8-2.7,1.8-4.3V13.9c0-5.7-4.6-10.3-10.3-10.3H13.9C8.2,3.6,3.6,8.2,3.6,13.9v38.3
	c0,3.4,2.7,6.1,6,6.1c1.6,0,3.2-0.6,4.4-1.8l9.5-9.6c-0.6-0.8-1.6-2.2-3.3-4.5l0,0c-1.8-2.6-1.7-6.1,0.3-8.5l0-0.1
	c2.7-2.7,7.2-2.7,9.9,0c2.2,2.2,2.7,5.7,1.1,8.5l0,0L28.2,46.9z M23.1,40.3c1,1.3,2,2.7,2.8,3.8c0.8-1.1,1.8-2.5,2.8-3.8
	c0.9-1.2,0.8-2.9-0.1-4c-0.6-0.8-1.5-1.2-2.5-1.3l0,0c-1,0-1.9,0.5-2.6,1.2l0,0.1C22.4,37.3,22.2,39,23.1,40.3z"/>
<g id="Group_1">
	<path id="Path_2" class="st0" d="M176.6,21.5c0,3,0,6,0,9.1l0,0C176.6,27.6,176.6,24.6,176.6,21.5z"/>
	<path id="Path_3" class="st0" d="M89.9,23.7c-1-1.4-2.3-2.6-3.9-3.3c-2.1-1.1-4.5-1.5-6.8-1.2c-2.2,0.2-4.3,1-6,2.4
		c-4,3.3-5.4,8.9-3.5,13.7c1.3,4,4.9,6.8,9.2,7c2.8,0.3,5.5-0.6,7.6-2.4c0.4-0.3,0.8-0.7,1.2-1.2c0,0.3,0,0.5,0,0.6v9.9
		c0,0.4,0,0.7,0.1,1.1c0.2,1.2,1.3,1.9,2.4,1.7c0,0,0,0,0,0c0.2,0,0.4-0.1,0.6-0.2c0.8-0.5,1.3-1.4,1.1-2.4c0-6,0-12.1,0-18.1
		C92.1,28.5,91.4,25.9,89.9,23.7z M83.9,37.7c-3.7,1.9-8.1,0.4-10-3.3c0,0,0,0,0-0.1c-0.3-0.6-0.5-1.3-0.7-2
		c-0.7-2.8,0.2-5.7,2.3-7.7c2.9-2.7,7.6-2.6,10.3,0.4c0.7,0.8,1.2,1.7,1.6,2.6c0.3,1,0.5,1.9,0.6,2.9C87.9,33.8,86.6,36.3,83.9,37.7
		L83.9,37.7z"/>
	<path id="Path_4" class="st0" d="M165.8,21.2c-3-2.2-6.9-2.8-10.5-1.6c-4.5,1.3-7.7,5.4-7.9,10.2c-0.2,6-0.1,12-0.1,18
		c0,0.7,0,1.5,0,2.2c0.1,1.2,1.1,2,2.3,1.9c0.6-0.1,1.2-0.4,1.6-0.9c0.3-0.5,0.4-1.1,0.4-1.7c0-3.3,0-6.7,0-10c0-0.2,0-0.4,0-0.7
		L152,39c4,4.2,10.6,4.4,14.8,0.5c0.9-0.9,1.7-1.9,2.3-3.1c1.2-2.5,1.6-5.4,1-8.2C169.7,25.4,168.1,22.9,165.8,21.2z M164.4,36
		c-2.7,3.1-7.4,3.3-10.5,0.6c0,0,0,0,0,0c-0.2-0.2-0.5-0.4-0.7-0.7c-2.6-3.1-2.4-8.6,0.7-11.3c1.3-1.2,2.9-1.9,4.6-1.9
		c3.7-0.1,6.9,2.5,7.6,6.1C166.8,31.4,166.1,34,164.4,36z"/>
	<path id="Path_5" class="st0" d="M111.1,19.6c-1.9-0.6-3.8-0.7-5.8-0.3c-3.4,0.5-6.3,2.6-7.8,5.6c-1.4,2.8-1.8,6.1-0.9,9.2
		c0.6,2.5,2.2,4.7,4.3,6.1c3.2,2.2,7.3,2.7,10.9,1.5c1.4-0.4,2.7-1.1,3.8-2c0.7-0.5,0.9-1.4,0.4-2.1c-0.1-0.1-0.1-0.2-0.2-0.3
		c-0.8-0.9-1.8-1-3-0.2c-2.1,1.4-4.6,1.9-7.1,1.3c-3-0.7-5.3-3.2-5.8-6.3H116c1,0.1,1.9-0.6,2-1.6c0-0.1,0-0.2,0-0.3
		c0-1.5-0.2-2.9-0.7-4.3C116.5,22.9,114.1,20.5,111.1,19.6z M100.2,28.8c0.5-3.6,3.6-6.3,7.3-6.1c4.1,0,6.2,3,6.6,6.1L100.2,28.8z"
		/>
	<path id="Path_6" class="st0" d="M136.6,19.7c-2-0.7-4.2-0.8-6.4-0.4c-2.8,0.5-5.2,2-6.8,4.4c-2,2.9-2.6,6.5-1.7,9.9
		c0.6,2.8,2.2,5.3,4.7,6.8c2.7,1.7,5.9,2.3,9,1.8c2-0.3,3.9-1.1,5.5-2.3c0.7-0.4,1-1.4,0.5-2.2c0,0,0,0,0,0
		c-0.1-0.2-0.3-0.4-0.6-0.6c-0.8-0.6-1.9-0.6-2.6,0.1c-1.2,0.8-2.5,1.3-3.9,1.4c-3.2,0.5-6.3-0.9-8-3.7c-0.5-0.8-0.9-1.8-1-2.8h15.8
		c1,0.1,1.9-0.6,2-1.6c0-0.1,0-0.2,0-0.3c0-1.9-0.4-3.8-1.1-5.5C141,22.4,139.1,20.5,136.6,19.7z M125.4,28.8
		c0.5-3.8,3.9-6.5,7.8-6.1c3.3,0.1,6,2.8,6.1,6.1H125.4z"/>
	<path id="Path_7" class="st0" d="M198.2,38c-0.4,0-0.8,0-1.2,0c-0.6-0.1-1.1-0.2-1.6-0.4c-1-0.6-1.7-1.7-1.7-2.9
		c-0.1-3.6,0-7.2,0-10.8c0-0.1,0-0.1,0.1-0.2c1.1,0,2.3,0,3.4,0c1.5,0,2.3-1,2-2.2c-0.2-0.8-0.9-1.3-1.6-1.3c-0.8-0.1-1.6,0-2.4,0
		c-1.4,0-1.4,0-1.4-1.4s0-3,0-4.5c0.1-1.1-0.8-2.1-1.9-2.2c0,0,0,0,0,0c-0.3,0-0.5,0-0.8,0.1c-1,0.3-1.6,1.2-1.5,2.2
		c0,1.6,0,3.3,0,4.9c0,1,0.1,0.9-0.9,0.9c-0.5,0-1.1,0-1.6,0.1c-0.8,0.1-1.4,0.8-1.4,1.6c-0.1,0.8,0.5,1.6,1.3,1.7
		c0.6,0.1,1.3,0.2,1.9,0.1c0.5,0,0.6,0.2,0.6,0.7c0,3.6-0.1,7.2,0.1,10.8c0.2,4,3.5,7.1,7.4,7c0.6,0,1.2-0.1,1.7-0.2
		c0.9-0.3,1.5-1.2,1.2-2.2C200,38.8,199.2,38,198.2,38z"/>
	<path id="Path_8" class="st0" d="M180.8,20.7c-0.1-0.7-0.7-1.3-1.5-1.4c-1.1-0.3-2.3,0.3-2.6,1.4c0,0,0,0,0,0
		c-0.1,0.3-0.1,0.6-0.1,0.9c0,3,0,6,0,9.1v4.1c0,1.7,0,3.5,0,5.2c0,1,0.7,2,1.7,2.2c1,0.3,2-0.2,2.3-1.2c0.2-0.5,0.3-1,0.3-1.5
		c0-5.8,0-11.6,0-17.4C180.9,21.5,180.9,21.1,180.8,20.7z"/>
	<path id="Path_9" class="st0" d="M178.8,10c-1.5-0.1-2.7,1.1-2.8,2.6c0,0,0,0,0,0v0.1c0,1.5,1.2,2.8,2.7,2.8c0,0,0,0,0,0h0.1
		c1.5,0,2.7-1.2,2.8-2.7C181.5,11.3,180.3,10,178.8,10L178.8,10z"/>
</g>
</svg>
