<?xml version="1.0" encoding="utf-8"?>
<!-- Generator: Adobe Illustrator 26.0.2, SVG Export Plug-In . SVG Version: 6.00 Build 0)  -->
<svg version="1.1" id="Capa_1" xmlns="http://www.w3.org/2000/svg" xmlns:xlink="http://www.w3.org/1999/xlink" x="0px" y="0px"
	 viewBox="0 0 80 80" style="enable-background:new 0 0 80 80;" xml:space="preserve">
<style type="text/css">
	.st0{fill:#FFFFFF;}
</style>
<path class="st0" d="M40,0C17.9,0,0,17.9,0,40s17.9,40,40,40s40-17.9,40-40S62.1,0,40,0z M67.3,24.6c-1.3,1.8-2.9,3.5-4.7,4.8
	c-0.2,0.2-0.4,0.4-0.3,0.7c0,10.5-4,19.2-12.3,25.7c-4.1,3.2-8.9,5.1-14,5.7c-7.1,1-14.4-0.4-20.5-4.2l-0.4-0.3
	c5.7,0.6,11.3-1.1,15.8-4.5c-4.6-0.2-8.7-3.2-10.1-7.6c1.6,0.3,3.2,0.2,4.8-0.2c-2.4-0.6-4.6-1.9-6.2-3.9c-1.6-1.9-2.4-4.4-2.4-6.9
	c1.5,0.8,3.2,1.3,4.9,1.3c-2.6-1.8-4.3-4.6-4.7-7.8c-0.3-2.3,0.2-4.7,1.4-6.7c5.5,6.7,13.6,10.8,22.2,11.3c-0.1-1-0.2-2-0.2-3
	c0.1-3.9,2.4-7.4,5.9-9.1c4.1-2.2,9.3-1.4,12.5,1.9c0.2,0.2,0.5,0.3,0.7,0.2c2.1-0.5,4.2-1.3,6.1-2.4l0.4-0.2
	c-0.8,2.4-2.4,4.5-4.5,5.9c0.5-0.1,1-0.2,1.5-0.3s1-0.2,1.5-0.4s1-0.3,1.4-0.5s1-0.4,1.5-0.6L67.3,24.6z"/>
</svg>
