<?xml version="1.0" encoding="utf-8"?>
<!-- Generator: Adobe Illustrator 26.0.2, SVG Export Plug-In . SVG Version: 6.00 Build 0)  -->
<svg version="1.1" id="Capa_1" xmlns="http://www.w3.org/2000/svg" xmlns:xlink="http://www.w3.org/1999/xlink" x="0px" y="0px"
	 viewBox="0 0 623.7 573.6" style="enable-background:new 0 0 623.7 573.6;" xml:space="preserve">
<style type="text/css">
	.st0{fill:#FFFFFF;}
</style>
<g>
	<path class="st0" d="M392.5,314.6c-12.5,0-24.5-4.9-33.9-14.3l-46.8-47.2l-46.8,47.2c-14.1,14.1-34.3,18.1-52.7,10.5
		c-18.4-7.6-29.9-24.8-29.9-44.7V74.6c0-38.4,31.2-69.6,69.6-69.6h119.6c38.4,0,69.6,31.2,69.6,69.6v191.6c0,19.9-11.4,37-29.9,44.7
		C405.2,313.4,398.8,314.6,392.5,314.6z M323.7,239.6l47.7,48.1c10.5,10.5,24,10.3,33.1,6.5s18.7-13.1,18.7-28V74.6
		c0-28.4-23.1-51.6-51.6-51.6H252.1c-28.4,0-51.6,23.1-51.6,51.6v191.6c0,15,9.7,24.3,18.7,28c9.1,3.8,22.5,4,33.1-6.6l47.6-48.1
		c-3.2-4.3-8.3-11.2-16.5-22.5l-0.1-0.1c-9.1-12.9-8.4-30.3,1.7-42.5l0.3-0.3c6.7-8.1,16.6-12.6,27.1-12.6
		c10.5,0.1,20.3,4.9,26.9,13.1c9.7,12.1,10.2,29.3,1.3,41.9l-0.1,0.1C332.1,228.3,326.9,235.3,323.7,239.6z M298,206.6
		c4.8,6.5,9.9,13.5,13.8,18.8c4-5.4,9.2-12.5,14-19.1c4.3-6.1,4-14.4-0.6-20.2c-3.2-4-7.9-6.3-13-6.3c0,0-0.1,0-0.2,0
		c-5,0-9.7,2.2-13,6.1l-0.3,0.3C294,191.9,293.6,200.3,298,206.6z"/>
</g>
<g>
	<g id="Group_1" transform="translate(926.944 356.874)">
		<path id="Path_2" class="st0" d="M-421.4,71c0,13.9,0,27.8,0,41.7c0,6.3,0,12.5,0,18.8c0-6.3,0-12.5,0-18.8
			C-421.4,98.7-421.4,84.8-421.4,71z"/>
		<path id="Path_3" class="st0" d="M-819.8,80.9c-4.6-6.5-10.7-11.7-17.7-15.3c-9.7-5-20.6-7-31.4-5.7c-10,1-19.4,4.8-27.3,11
			c-18.6,15.2-25,40.7-15.9,62.9c7.3,18.9,21.1,30.4,42,32.1c12.7,1.2,25.2-2.9,34.8-11.2c1.9-1.6,3.6-3.3,5.8-5.4
			c0.1,1.3,0.2,2.1,0.2,2.9c0,15.1,0,30.2,0,45.3c0,1.6,0.1,3.3,0.3,4.9c0.9,5.3,5.9,8.9,11.3,8c1-0.2,2-0.5,2.9-1
			c3.8-2.2,5.8-6.6,5.2-10.9c0-27.8,0-55.6,0-83.3C-809.2,102.9-812.8,90.9-819.8,80.9z M-847.4,145.3c-16.8,8.4-37.3,1.6-45.8-15.2
			c-1.5-3-2.5-6.1-3.1-9.4c-3-12.8,1.1-26.3,10.8-35.2c13.5-12.6,34.7-11.9,47.3,1.6c3.2,3.5,5.7,7.6,7.2,12.1
			c1.2,4.4,2.2,8.9,2.8,13.5C-828.7,127.2-834.5,138.7-847.4,145.3L-847.4,145.3z"/>
		<path id="Path_4" class="st0" d="M-470.9,69.6c-13.9-10.2-31.9-13-48.2-7.6c-20.9,6.1-35.4,25-36.1,46.7
			c-0.8,27.6-0.3,55.2-0.3,82.8c0,3.3,0,6.7,0.1,10c0.2,4,2.9,7.4,6.8,8.4c4,1.4,8.5-0.2,10.8-3.8c1.2-2.4,1.8-5.1,1.9-7.8
			c0.2-15.4,0.1-30.7,0.1-46c0-0.9,0.1-1.8,0.2-3.1c0.9,0.9,1.4,1.3,1.9,1.7c7.4,8,17.4,13.1,28.2,14.7c20.8,3,41.1-7.8,50.3-26.7
			c5.6-11.7,7.3-24.9,4.6-37.5C-453,88.5-460.2,77.1-470.9,69.6z M-477.3,137.4c-12.5,14.1-34,15.3-48.1,2.8c-1.1-1-2.1-2-3.1-3.1
			c-11.9-14.2-11.1-39.4,3.2-51.8c5.7-5.5,13.4-8.6,21.3-8.6c16.9-0.4,31.6,11.4,34.7,28C-466.6,116.2-469.6,128.3-477.3,137.4z"/>
		<path id="Path_5" class="st0" d="M-722.3,62c-8.6-2.6-17.7-3.1-26.5-1.5c-15.4,2.2-28.8,11.8-35.7,25.8c-6.7,13-8.1,28-4.1,42
			c2.8,11.6,9.9,21.6,19.9,28.1c14.8,10,33.3,12.5,50.2,6.9c6.4-1.8,12.3-4.9,17.6-9c3.2-2.1,4.1-6.4,2-9.6c-0.3-0.4-0.6-0.9-1-1.2
			c-3.5-4.1-8.2-4.5-13.6-1c-9.5,6.4-21.3,8.5-32.5,5.9c-13.9-3.3-24.3-14.7-26.5-28.8h2.9c23.2,0,46.4,0,69.6,0
			c4.6,0.5,8.8-2.8,9.3-7.4c0.1-0.5,0.1-1,0-1.5c0-6.7-1-13.3-3.1-19.7C-697.7,77.1-708.5,66.2-722.3,62z M-772.3,104.1
			c2-16.7,16.6-29,33.5-28.2c18.8-0.1,28.7,13.6,30.2,28.2H-772.3z"/>
		<path id="Path_6" class="st0" d="M-604.9,62.4c-9.4-3.2-19.5-3.8-29.2-1.8c-12.7,2.1-24,9.4-31.1,20.1
			c-8.9,13.3-11.8,29.7-7.9,45.3c2.5,12.9,10.3,24.1,21.5,31.1c12.2,7.9,26.9,10.8,41.2,8.2c9.1-1.4,17.8-5.1,25.1-10.6
			c3.4-2.1,4.5-6.5,2.5-10c-0.6-1.1-1.5-1.9-2.6-2.5c-3.6-2.8-8.7-2.6-12.2,0.4c-5.4,3.6-11.5,5.9-17.9,6.6
			c-14.5,2.3-29-4.3-36.7-16.8c-2.5-3.8-4-8.2-4.5-12.7h3.3c23.1,0,46.2,0,69.3,0c4.6,0.5,8.8-2.8,9.3-7.5c0-0.5,0.1-1,0-1.5
			c0-8.7-1.7-17.3-5.2-25.2C-584.7,74.6-593.7,66.2-604.9,62.4z M-656.5,104.1c2.3-17.5,18.1-29.9,35.6-28.2
			c15.2,0.7,27.5,12.9,28,28.2H-656.5z"/>
		<path id="Path_7" class="st0" d="M-322.1,146.3c-1.9-0.1-3.8,0.2-5.7-0.1c-2.6-0.2-5.2-0.9-7.5-2c-4.8-2.7-7.7-7.7-7.7-13.2
			c-0.3-16.5-0.2-32.9-0.2-49.4c0.1-0.3,0.2-0.7,0.3-1c5.2,0,10.4,0.1,15.5,0c6.7-0.1,10.4-4.4,9.2-10.4c-0.8-3.5-3.9-5.9-7.5-5.9
			c-3.7-0.3-7.4-0.2-11.1-0.3c-6.5,0-6.5,0-6.5-6.4c0-7,0.1-13.9,0-20.8c0.4-5.2-3.5-9.8-8.8-10.1c-1.2-0.1-2.3,0-3.5,0.4
			c-4.5,1.2-7.5,5.5-7.1,10.1c-0.1,7.5,0,15.1,0,22.6c0,4.6,0.6,4.1-4.1,4.2c-2.5,0-5,0.2-7.4,0.5c-3.6,0.6-6.3,3.7-6.2,7.4
			c-0.4,3.9,2.3,7.4,6.1,8c2.9,0.5,5.8,0.7,8.7,0.6c2.5-0.1,3,0.7,3,3c0,16.6-0.4,33.1,0.6,49.6c0.6,18.3,15.9,32.7,34.2,32.2
			c2.6,0,5.3-0.4,7.8-1.1c4.2-1.2,6.8-5.5,5.9-9.9C-314.2,150-317.7,146.4-322.1,146.3z"/>
		<path id="Path_8" class="st0" d="M-402.2,66.9c-0.6-3.4-3.4-6-6.8-6.5c-5.1-1.5-10.5,1.3-12,6.4c-0.4,1.3-0.5,2.7-0.3,4.1
			c0,13.9,0,27.8,0,41.7c0,6.3,0,12.5,0,18.8c0,8-0.1,15.9,0,23.9c-0.2,4.8,3.1,8.9,7.8,9.9c4.4,1.2,9.1-1.1,10.7-5.4
			c0.8-2.2,1.2-4.6,1.2-7c0.1-26.7,0.1-53.3,0-80C-401.6,70.8-401.8,68.9-402.2,66.9z"/>
		<path id="Path_9" class="st0" d="M-411.3,17.7c-6.9-0.2-12.6,5.3-12.7,12.1c0,0.1,0,0.2,0,0.2c-0.2,6.9,5.3,12.7,12.3,12.8
			c0.1,0,0.2,0,0.3,0c6.9-0.1,12.5-5.5,12.7-12.3c0.1-7-5.4-12.8-12.4-12.9C-411.2,17.7-411.3,17.7-411.3,17.7z"/>
	</g>
</g>
</svg>
