<?xml version="1.0" encoding="utf-8"?>
<!-- Generator: Adobe Illustrator 26.0.2, SVG Export Plug-In . SVG Version: 6.00 Build 0)  -->
<svg version="1.1" id="Capa_1" xmlns="http://www.w3.org/2000/svg" xmlns:xlink="http://www.w3.org/1999/xlink" x="0px" y="0px"
	 viewBox="0 0 80 80" style="enable-background:new 0 0 80 80;" xml:space="preserve">
<style type="text/css">
	.st0{fill:#FFFFFF;}
</style>
<path class="st0" d="M40,0C17.9,0,0,17.9,0,40s17.9,40,40,40s40-17.9,40-40S62.1,0,40,0z M64.1,46.8c0.1,2.3-0.1,4.6-0.6,6.8
	c-1,5.1-5,9.1-10.1,10c-2.1,0.4-4.3,0.5-6.4,0.5c-1.2,0-2.3,0-3.5,0h-7.9H33c-2.3,0.1-4.5-0.1-6.7-0.6c-5.1-1-9-5-9.9-10
	c-0.4-1.8-0.5-3.6-0.5-5.4c0-5.4,0-10.8,0-16.2c-0.1-2.2,0.2-4.3,0.8-6.4c1.2-4.7,5.1-8.2,9.9-9.1c1.8-0.4,3.7-0.5,5.5-0.5
	c5.3,0,10.7,0,16,0c2.1,0,4.3,0.2,6.3,0.7c4.8,1.2,8.5,5.1,9.3,10c0.4,2.1,0.5,4.3,0.5,6.5C64.1,37.6,64.1,42.2,64.1,46.8z"/>
<path class="st0" d="M43.5,64.1L43.5,64.1z"/>
<path class="st0" d="M35.6,64.1L35.6,64.1z"/>
<path class="st0" d="M59.3,27.1c-0.5-2.4-1.9-4.4-4.1-5.6c-1.6-0.8-3.4-1.3-5.2-1.3c-2.7-0.1-5.4-0.1-8.1-0.2c-3.5,0-7.1,0-10.7,0.1
	c-1.4,0-2.8,0.2-4.2,0.4c-2.7,0.5-4.9,2.3-5.9,4.8c-0.6,1.4-0.9,2.9-0.9,4.5c-0.1,3.4-0.1,6.7-0.2,10.1h0.1c0,1.8,0,3.5,0,5.3
	c-0.1,2.4,0.1,4.8,0.4,7.2c0.5,3.3,3,6,6.2,6.8c1.5,0.4,3,0.5,4.6,0.5c5.8,0,11.5,0,17.2,0c1.3,0,2.6-0.1,3.8-0.4
	c3.3-0.4,6-2.9,6.8-6.2c0.4-1.6,0.6-3.2,0.5-4.8c0-5.6,0-11.2,0-16.8C59.8,30.1,59.6,28.6,59.3,27.1z M39.9,52.4
	c-6.9,0-12.4-5.6-12.3-12.5S33.2,27.5,40,27.5c6.9,0,12.4,5.6,12.3,12.5C52.4,46.9,46.8,52.4,39.9,52.4
	C39.9,52.4,39.9,52.4,39.9,52.4z M52.9,30c-1.6,0-2.9-1.2-3-2.8c0-1.6,1.2-2.9,2.8-3c1.6,0,2.9,1.2,3,2.8
	C55.8,28.6,54.5,29.9,52.9,30C52.9,30,52.9,30,52.9,30z"/>
<path class="st0" d="M40,31.9c-4.5,0-8.1,3.5-8.2,8c0,4.5,3.5,8.1,8,8.2c4.5,0,8.1-3.5,8.2-8c0,0,0,0,0,0C48,35.6,44.4,31.9,40,31.9
	z"/>
</svg>
